<svg width="120" height="168" viewBox="0 0 120 168" fill="red" xmlns="http://www.w3.org/2000/svg">
    <circle cx="2.03922" cy="2.03922" r="2.03922" fill="#D9D9D9" />
    <circle cx="2.03922" cy="12.9149" r="2.03922" fill="#D9D9D9" />
    <circle cx="2.03922" cy="23.7907" r="2.03922" fill="#D9D9D9" />
    <circle cx="2.03922" cy="34.6667" r="2.03922" fill="#D9D9D9" />
    <circle cx="2.03922" cy="45.5424" r="2.03922" fill="#D9D9D9" />
    <circle cx="2.03922" cy="56.4181" r="2.03922" fill="#D9D9D9" />
    <circle cx="2.03922" cy="67.2941" r="2.03922" fill="#D9D9D9" />
    <circle cx="2.03922" cy="78.1698" r="2.03922" fill="#D9D9D9" />
    <circle cx="2.03922" cy="89.0456" r="2.03922" fill="#D9D9D9" />
    <circle cx="2.03922" cy="99.9215" r="2.03922" fill="#D9D9D9" />
    <circle cx="2.03922" cy="110.797" r="2.03922" fill="#D9D9D9" />
    <circle cx="2.03922" cy="121.673" r="2.03922" fill="#D9D9D9" />
    <circle cx="2.03922" cy="132.549" r="2.03922" fill="#D9D9D9" />
    <circle cx="2.03922" cy="143.425" r="2.03922" fill="#D9D9D9" />
    <circle cx="2.03922" cy="154.3" r="2.03922" fill="#D9D9D9" />
    <circle cx="2.03922" cy="165.176" r="2.03922" fill="#D9D9D9" />
    <circle cx="10.1961" cy="2.03922" r="2.03922" fill="#D9D9D9" />
    <circle cx="10.1961" cy="12.9149" r="2.03922" fill="#D9D9D9" />
    <circle cx="10.1961" cy="23.7907" r="2.03922" fill="#D9D9D9" />
    <circle cx="10.1961" cy="34.6667" r="2.03922" fill="#D9D9D9" />
    <circle cx="10.1961" cy="45.5424" r="2.03922" fill="#D9D9D9" />
    <circle cx="10.1961" cy="56.4181" r="2.03922" fill="#D9D9D9" />
    <circle cx="10.1961" cy="67.2941" r="2.03922" fill="#D9D9D9" />
    <circle cx="10.1961" cy="78.1698" r="2.03922" fill="#D9D9D9" />
    <circle cx="10.1961" cy="89.0456" r="2.03922" fill="#D9D9D9" />
    <circle cx="10.1961" cy="99.9215" r="2.03922" fill="#D9D9D9" />
    <circle cx="10.1961" cy="110.797" r="2.03922" fill="#D9D9D9" />
    <circle cx="10.1961" cy="121.673" r="2.03922" fill="#D9D9D9" />
    <circle cx="10.1961" cy="132.549" r="2.03922" fill="#D9D9D9" />
    <circle cx="10.1961" cy="143.425" r="2.03922" fill="#D9D9D9" />
    <circle cx="10.1961" cy="154.3" r="2.03922" fill="#D9D9D9" />
    <circle cx="10.1961" cy="165.176" r="2.03922" fill="#D9D9D9" />
    <circle cx="18.3529" cy="2.03922" r="2.03922" fill="#D9D9D9" />
    <circle cx="18.3529" cy="12.9149" r="2.03922" fill="#D9D9D9" />
    <circle cx="18.3529" cy="23.7907" r="2.03922" fill="#D9D9D9" />
    <circle cx="18.3529" cy="34.6667" r="2.03922" fill="#D9D9D9" />
    <circle cx="18.3529" cy="45.5424" r="2.03922" fill="#D9D9D9" />
    <circle cx="18.3529" cy="56.4181" r="2.03922" fill="#D9D9D9" />
    <circle cx="18.3529" cy="67.2941" r="2.03922" fill="#D9D9D9" />
    <circle cx="18.3529" cy="78.1698" r="2.03922" fill="#D9D9D9" />
    <circle cx="18.3529" cy="89.0456" r="2.03922" fill="#D9D9D9" />
    <circle cx="18.3529" cy="99.9215" r="2.03922" fill="#D9D9D9" />
    <circle cx="18.3529" cy="110.797" r="2.03922" fill="#D9D9D9" />
    <circle cx="18.3529" cy="121.673" r="2.03922" fill="#D9D9D9" />
    <circle cx="18.3529" cy="132.549" r="2.03922" fill="#D9D9D9" />
    <circle cx="18.3529" cy="143.425" r="2.03922" fill="#D9D9D9" />
    <circle cx="18.3529" cy="154.3" r="2.03922" fill="#D9D9D9" />
    <circle cx="18.3529" cy="165.176" r="2.03922" fill="#D9D9D9" />
    <circle cx="26.5098" cy="2.03922" r="2.03922" fill="#D9D9D9" />
    <circle cx="26.5098" cy="12.9149" r="2.03922" fill="#D9D9D9" />
    <circle cx="26.5098" cy="23.7907" r="2.03922" fill="#D9D9D9" />
    <circle cx="26.5098" cy="34.6667" r="2.03922" fill="#D9D9D9" />
    <circle cx="26.5098" cy="45.5424" r="2.03922" fill="#D9D9D9" />
    <circle cx="26.5098" cy="56.4181" r="2.03922" fill="#D9D9D9" />
    <circle cx="26.5098" cy="67.2941" r="2.03922" fill="#D9D9D9" />
    <circle cx="26.5098" cy="78.1698" r="2.03922" fill="#D9D9D9" />
    <circle cx="26.5098" cy="89.0456" r="2.03922" fill="#D9D9D9" />
    <circle cx="26.5098" cy="99.9215" r="2.03922" fill="#D9D9D9" />
    <circle cx="26.5098" cy="110.797" r="2.03922" fill="#D9D9D9" />
    <circle cx="26.5098" cy="121.673" r="2.03922" fill="#D9D9D9" />
    <circle cx="26.5098" cy="132.549" r="2.03922" fill="#D9D9D9" />
    <circle cx="26.5098" cy="143.425" r="2.03922" fill="#D9D9D9" />
    <circle cx="26.5098" cy="154.3" r="2.03922" fill="#D9D9D9" />
    <circle cx="26.5098" cy="165.176" r="2.03922" fill="#D9D9D9" />
    <circle cx="34.6667" cy="2.03922" r="2.03922" fill="#D9D9D9" />
    <circle cx="34.6667" cy="12.9149" r="2.03922" fill="#D9D9D9" />
    <circle cx="34.6667" cy="23.7907" r="2.03922" fill="#D9D9D9" />
    <circle cx="34.6667" cy="34.6667" r="2.03922" fill="#D9D9D9" />
    <circle cx="34.6667" cy="45.5424" r="2.03922" fill="#D9D9D9" />
    <circle cx="34.6667" cy="56.4181" r="2.03922" fill="#D9D9D9" />
    <circle cx="34.6667" cy="67.2941" r="2.03922" fill="#D9D9D9" />
    <circle cx="34.6667" cy="78.1698" r="2.03922" fill="#D9D9D9" />
    <circle cx="34.6667" cy="89.0456" r="2.03922" fill="#D9D9D9" />
    <circle cx="34.6667" cy="99.9215" r="2.03922" fill="#D9D9D9" />
    <circle cx="34.6667" cy="110.797" r="2.03922" fill="#D9D9D9" />
    <circle cx="34.6667" cy="121.673" r="2.03922" fill="#D9D9D9" />
    <circle cx="34.6667" cy="132.549" r="2.03922" fill="#D9D9D9" />
    <circle cx="34.6667" cy="143.425" r="2.03922" fill="#D9D9D9" />
    <circle cx="34.6667" cy="154.3" r="2.03922" fill="#D9D9D9" />
    <circle cx="34.6667" cy="165.176" r="2.03922" fill="#D9D9D9" />
    <circle cx="42.8235" cy="2.03922" r="2.03922" fill="#D9D9D9" />
    <circle cx="42.8235" cy="12.9149" r="2.03922" fill="#D9D9D9" />
    <circle cx="42.8235" cy="23.7907" r="2.03922" fill="#D9D9D9" />
    <circle cx="42.8235" cy="34.6667" r="2.03922" fill="#D9D9D9" />
    <circle cx="42.8235" cy="45.5424" r="2.03922" fill="#D9D9D9" />
    <circle cx="42.8235" cy="56.4181" r="2.03922" fill="#D9D9D9" />
    <circle cx="42.8235" cy="67.2941" r="2.03922" fill="#D9D9D9" />
    <circle cx="42.8235" cy="78.1698" r="2.03922" fill="#D9D9D9" />
    <circle cx="42.8235" cy="89.0456" r="2.03922" fill="#D9D9D9" />
    <circle cx="42.8235" cy="99.9215" r="2.03922" fill="#D9D9D9" />
    <circle cx="42.8235" cy="110.797" r="2.03922" fill="#D9D9D9" />
    <circle cx="42.8235" cy="121.673" r="2.03922" fill="#D9D9D9" />
    <circle cx="42.8235" cy="132.549" r="2.03922" fill="#D9D9D9" />
    <circle cx="42.8235" cy="143.425" r="2.03922" fill="#D9D9D9" />
    <circle cx="42.8235" cy="154.3" r="2.03922" fill="#D9D9D9" />
    <circle cx="42.8235" cy="165.176" r="2.03922" fill="#D9D9D9" />
    <circle cx="50.9804" cy="2.03922" r="2.03922" fill="#D9D9D9" />
    <circle cx="50.9804" cy="12.9149" r="2.03922" fill="#D9D9D9" />
    <circle cx="50.9804" cy="23.7907" r="2.03922" fill="#D9D9D9" />
    <circle cx="50.9804" cy="34.6667" r="2.03922" fill="#D9D9D9" />
    <circle cx="50.9804" cy="45.5424" r="2.03922" fill="#D9D9D9" />
    <circle cx="50.9804" cy="56.4181" r="2.03922" fill="#D9D9D9" />
    <circle cx="50.9804" cy="67.2941" r="2.03922" fill="#D9D9D9" />
    <circle cx="50.9804" cy="78.1698" r="2.03922" fill="#D9D9D9" />
    <circle cx="50.9804" cy="89.0456" r="2.03922" fill="#D9D9D9" />
    <circle cx="50.9804" cy="99.9215" r="2.03922" fill="#D9D9D9" />
    <circle cx="50.9804" cy="110.797" r="2.03922" fill="#D9D9D9" />
    <circle cx="50.9804" cy="121.673" r="2.03922" fill="#D9D9D9" />
    <circle cx="50.9804" cy="132.549" r="2.03922" fill="#D9D9D9" />
    <circle cx="50.9804" cy="143.425" r="2.03922" fill="#D9D9D9" />
    <circle cx="50.9804" cy="154.3" r="2.03922" fill="#D9D9D9" />
    <circle cx="50.9804" cy="165.176" r="2.03922" fill="#D9D9D9" />
    <circle cx="59.1372" cy="2.03922" r="2.03922" fill="#D9D9D9" />
    <circle cx="59.1372" cy="12.9149" r="2.03922" fill="#D9D9D9" />
    <circle cx="59.1372" cy="23.7907" r="2.03922" fill="#D9D9D9" />
    <circle cx="59.1372" cy="34.6667" r="2.03922" fill="#D9D9D9" />
    <circle cx="59.1372" cy="45.5424" r="2.03922" fill="#D9D9D9" />
    <circle cx="59.1372" cy="56.4181" r="2.03922" fill="#D9D9D9" />
    <circle cx="59.1372" cy="67.2941" r="2.03922" fill="#D9D9D9" />
    <circle cx="59.1372" cy="78.1698" r="2.03922" fill="#D9D9D9" />
    <circle cx="59.1372" cy="89.0456" r="2.03922" fill="#D9D9D9" />
    <circle cx="59.1372" cy="99.9215" r="2.03922" fill="#D9D9D9" />
    <circle cx="59.1372" cy="110.797" r="2.03922" fill="#D9D9D9" />
    <circle cx="59.1372" cy="121.673" r="2.03922" fill="#D9D9D9" />
    <circle cx="59.1372" cy="132.549" r="2.03922" fill="#D9D9D9" />
    <circle cx="59.1372" cy="143.425" r="2.03922" fill="#D9D9D9" />
    <circle cx="59.1372" cy="154.3" r="2.03922" fill="#D9D9D9" />
    <circle cx="59.1372" cy="165.176" r="2.03922" fill="#D9D9D9" />
    <circle cx="67.2941" cy="2.03922" r="2.03922" fill="#D9D9D9" />
    <circle cx="67.2941" cy="12.9149" r="2.03922" fill="#D9D9D9" />
    <circle cx="67.2941" cy="23.7907" r="2.03922" fill="#D9D9D9" />
    <circle cx="67.2941" cy="34.6667" r="2.03922" fill="#D9D9D9" />
    <circle cx="67.2941" cy="45.5424" r="2.03922" fill="#D9D9D9" />
    <circle cx="67.2941" cy="56.4181" r="2.03922" fill="#D9D9D9" />
    <circle cx="67.2941" cy="67.2941" r="2.03922" fill="#D9D9D9" />
    <circle cx="67.2941" cy="78.1698" r="2.03922" fill="#D9D9D9" />
    <circle cx="67.2941" cy="89.0456" r="2.03922" fill="#D9D9D9" />
    <circle cx="67.2941" cy="99.9215" r="2.03922" fill="#D9D9D9" />
    <circle cx="67.2941" cy="110.797" r="2.03922" fill="#D9D9D9" />
    <circle cx="67.2941" cy="121.673" r="2.03922" fill="#D9D9D9" />
    <circle cx="67.2941" cy="132.549" r="2.03922" fill="#D9D9D9" />
    <circle cx="67.2941" cy="143.425" r="2.03922" fill="#D9D9D9" />
    <circle cx="67.2941" cy="154.3" r="2.03922" fill="#D9D9D9" />
    <circle cx="67.2941" cy="165.176" r="2.03922" fill="#D9D9D9" />
    <circle cx="75.451" cy="2.03922" r="2.03922" fill="#D9D9D9" />
    <circle cx="75.451" cy="12.9149" r="2.03922" fill="#D9D9D9" />
    <circle cx="75.451" cy="23.7907" r="2.03922" fill="#D9D9D9" />
    <circle cx="75.451" cy="34.6667" r="2.03922" fill="#D9D9D9" />
    <circle cx="75.451" cy="45.5424" r="2.03922" fill="#D9D9D9" />
    <circle cx="75.451" cy="56.4181" r="2.03922" fill="#D9D9D9" />
    <circle cx="75.451" cy="67.2941" r="2.03922" fill="#D9D9D9" />
    <circle cx="75.451" cy="78.1698" r="2.03922" fill="#D9D9D9" />
    <circle cx="75.451" cy="89.0456" r="2.03922" fill="#D9D9D9" />
    <circle cx="75.451" cy="99.9215" r="2.03922" fill="#D9D9D9" />
    <circle cx="75.451" cy="110.797" r="2.03922" fill="#D9D9D9" />
    <circle cx="75.451" cy="121.673" r="2.03922" fill="#D9D9D9" />
    <circle cx="75.451" cy="132.549" r="2.03922" fill="#D9D9D9" />
    <circle cx="75.451" cy="143.425" r="2.03922" fill="#D9D9D9" />
    <circle cx="75.451" cy="154.3" r="2.03922" fill="#D9D9D9" />
    <circle cx="75.451" cy="165.176" r="2.03922" fill="#D9D9D9" />
    <circle cx="83.6078" cy="2.03922" r="2.03922" fill="#D9D9D9" />
    <circle cx="83.6078" cy="12.9149" r="2.03922" fill="#D9D9D9" />
    <circle cx="83.6078" cy="23.7907" r="2.03922" fill="#D9D9D9" />
    <circle cx="83.6078" cy="34.6667" r="2.03922" fill="#D9D9D9" />
    <circle cx="83.6078" cy="45.5424" r="2.03922" fill="#D9D9D9" />
    <circle cx="83.6078" cy="56.4181" r="2.03922" fill="#D9D9D9" />
    <circle cx="83.6078" cy="67.2941" r="2.03922" fill="#D9D9D9" />
    <circle cx="83.6078" cy="78.1698" r="2.03922" fill="#D9D9D9" />
    <circle cx="83.6078" cy="89.0456" r="2.03922" fill="#D9D9D9" />
    <circle cx="83.6078" cy="99.9215" r="2.03922" fill="#D9D9D9" />
    <circle cx="83.6078" cy="110.797" r="2.03922" fill="#D9D9D9" />
    <circle cx="83.6078" cy="121.673" r="2.03922" fill="#D9D9D9" />
    <circle cx="83.6078" cy="132.549" r="2.03922" fill="#D9D9D9" />
    <circle cx="83.6078" cy="143.425" r="2.03922" fill="#D9D9D9" />
    <circle cx="83.6078" cy="154.3" r="2.03922" fill="#D9D9D9" />
    <circle cx="83.6078" cy="165.176" r="2.03922" fill="#D9D9D9" />
    <circle cx="91.7647" cy="2.03922" r="2.03922" fill="#D9D9D9" />
    <circle cx="91.7647" cy="12.9149" r="2.03922" fill="#D9D9D9" />
    <circle cx="91.7647" cy="23.7907" r="2.03922" fill="#D9D9D9" />
    <circle cx="91.7647" cy="34.6667" r="2.03922" fill="#D9D9D9" />
    <circle cx="91.7647" cy="45.5424" r="2.03922" fill="#D9D9D9" />
    <circle cx="91.7647" cy="56.4181" r="2.03922" fill="#D9D9D9" />
    <circle cx="91.7647" cy="67.2941" r="2.03922" fill="#D9D9D9" />
    <circle cx="91.7647" cy="78.1698" r="2.03922" fill="#D9D9D9" />
    <circle cx="91.7647" cy="89.0456" r="2.03922" fill="#D9D9D9" />
    <circle cx="91.7647" cy="99.9215" r="2.03922" fill="#D9D9D9" />
    <circle cx="91.7647" cy="110.797" r="2.03922" fill="#D9D9D9" />
    <circle cx="91.7647" cy="121.673" r="2.03922" fill="#D9D9D9" />
    <circle cx="91.7647" cy="132.549" r="2.03922" fill="#D9D9D9" />
    <circle cx="91.7647" cy="143.425" r="2.03922" fill="#D9D9D9" />
    <circle cx="91.7647" cy="154.3" r="2.03922" fill="#D9D9D9" />
    <circle cx="91.7647" cy="165.176" r="2.03922" fill="#D9D9D9" />
    <circle cx="99.9215" cy="2.03922" r="2.03922" fill="#D9D9D9" />
    <circle cx="99.9215" cy="12.9149" r="2.03922" fill="#D9D9D9" />
    <circle cx="99.9215" cy="23.7907" r="2.03922" fill="#D9D9D9" />
    <circle cx="99.9215" cy="34.6667" r="2.03922" fill="#D9D9D9" />
    <circle cx="99.9215" cy="45.5424" r="2.03922" fill="#D9D9D9" />
    <circle cx="99.9215" cy="56.4181" r="2.03922" fill="#D9D9D9" />
    <circle cx="99.9215" cy="67.2941" r="2.03922" fill="#D9D9D9" />
    <circle cx="99.9215" cy="78.1698" r="2.03922" fill="#D9D9D9" />
    <circle cx="99.9215" cy="89.0456" r="2.03922" fill="#D9D9D9" />
    <circle cx="99.9215" cy="99.9215" r="2.03922" fill="#D9D9D9" />
    <circle cx="99.9215" cy="110.797" r="2.03922" fill="#D9D9D9" />
    <circle cx="99.9215" cy="121.673" r="2.03922" fill="#D9D9D9" />
    <circle cx="99.9215" cy="132.549" r="2.03922" fill="#D9D9D9" />
    <circle cx="99.9215" cy="143.425" r="2.03922" fill="#D9D9D9" />
    <circle cx="99.9215" cy="154.3" r="2.03922" fill="#D9D9D9" />
    <circle cx="99.9215" cy="165.176" r="2.03922" fill="#D9D9D9" />
    <circle cx="108.078" cy="2.03922" r="2.03922" fill="#D9D9D9" />
    <circle cx="108.078" cy="12.9149" r="2.03922" fill="#D9D9D9" />
    <circle cx="108.078" cy="23.7907" r="2.03922" fill="#D9D9D9" />
    <circle cx="108.078" cy="34.6667" r="2.03922" fill="#D9D9D9" />
    <circle cx="108.078" cy="45.5424" r="2.03922" fill="#D9D9D9" />
    <circle cx="108.078" cy="56.4181" r="2.03922" fill="#D9D9D9" />
    <circle cx="108.078" cy="67.2941" r="2.03922" fill="#D9D9D9" />
    <circle cx="108.078" cy="78.1698" r="2.03922" fill="#D9D9D9" />
    <circle cx="108.078" cy="89.0456" r="2.03922" fill="#D9D9D9" />
    <circle cx="108.078" cy="99.9215" r="2.03922" fill="#D9D9D9" />
    <circle cx="108.078" cy="110.797" r="2.03922" fill="#D9D9D9" />
    <circle cx="108.078" cy="121.673" r="2.03922" fill="#D9D9D9" />
    <circle cx="108.078" cy="132.549" r="2.03922" fill="#D9D9D9" />
    <circle cx="108.078" cy="143.425" r="2.03922" fill="#D9D9D9" />
    <circle cx="108.078" cy="154.3" r="2.03922" fill="#D9D9D9" />
    <circle cx="108.078" cy="165.176" r="2.03922" fill="#D9D9D9" />
    <circle cx="116.235" cy="2.03922" r="2.03922" fill="#D9D9D9" />
    <circle cx="116.235" cy="12.9149" r="2.03922" fill="#D9D9D9" />
    <circle cx="116.235" cy="23.7907" r="2.03922" fill="#D9D9D9" />
    <circle cx="116.235" cy="34.6667" r="2.03922" fill="#D9D9D9" />
    <circle cx="116.235" cy="45.5424" r="2.03922" fill="#D9D9D9" />
    <circle cx="116.235" cy="56.4181" r="2.03922" fill="#D9D9D9" />
    <circle cx="116.235" cy="67.2941" r="2.03922" fill="#D9D9D9" />
    <circle cx="116.235" cy="78.1698" r="2.03922" fill="#D9D9D9" />
    <circle cx="116.235" cy="89.0456" r="2.03922" fill="#D9D9D9" />
    <circle cx="116.235" cy="99.9215" r="2.03922" fill="#D9D9D9" />
    <circle cx="116.235" cy="110.797" r="2.03922" fill="#D9D9D9" />
    <circle cx="116.235" cy="121.673" r="2.03922" fill="#D9D9D9" />
    <circle cx="116.235" cy="132.549" r="2.03922" fill="#D9D9D9" />
    <circle cx="116.235" cy="143.425" r="2.03922" fill="#D9D9D9" />
    <circle cx="116.235" cy="154.3" r="2.03922" fill="#D9D9D9" />
    <circle cx="116.235" cy="165.176" r="2.03922" fill="#D9D9D9" />
</svg>