<svg width="177" height="36" viewBox="0 0 177 36" fill="none" xmlns="http://www.w3.org/2000/svg">
<g clip-path="url(#clip0_4_244)">
<path d="M56 34L51.2945 25.773L42.0388 9.47913L37.7987 2.05342L32.5762 8.6778L29.8356 12.1502L21.5623 22.621C20.1662 24.4908 17.9945 25.7195 15.5125 25.7195C11.3241 25.7195 7.91136 22.1937 7.91136 17.8664C7.91136 13.5392 11.2207 10.0134 15.4608 10.0134C19.7008 10.0134 23.0619 13.5392 23.0619 17.8664C23.0619 18.2938 23.0102 18.6678 22.9584 19.0952L29.3186 11.0818C26.8366 5.73957 21.5623 2 15.409 2C6.9289 2 0 9.10517 0 17.9199C0 26.6811 6.9289 34 15.409 34C20.3213 34 24.7165 31.5426 27.5088 27.7496L36.7128 16.1035L42.1939 25.773L42.2973 25.9866H30.0425C30.0425 25.9866 30.0425 26.0401 30.0942 26.0935C30.4044 27.0551 31.904 33.5192 39.9705 34H48.1921H56Z" fill="#0A73BE"/>
</g>
<path d="M65.466 21.22C64.4833 21.22 63.574 21.0293 62.738 20.648C61.9167 20.2667 61.242 19.7167 60.714 18.998L62.342 17.04C62.7673 17.6267 63.2293 18.0667 63.728 18.36C64.2413 18.6533 64.7987 18.8 65.4 18.8C66.9987 18.8 67.798 17.854 67.798 15.962V7.998H62.32V5.6H70.658V15.808C70.658 17.6267 70.2107 18.9833 69.316 19.878C68.436 20.7727 67.1527 21.22 65.466 21.22ZM79.6856 21.154C78.4829 21.154 77.4122 20.8973 76.4736 20.384C75.5349 19.856 74.7942 19.1373 74.2516 18.228C73.7089 17.3187 73.4376 16.2847 73.4376 15.126C73.4376 13.9527 73.7089 12.9187 74.2516 12.024C74.7942 11.1147 75.5349 10.4033 76.4736 9.89C77.4122 9.37667 78.4829 9.12 79.6856 9.12C80.9029 9.12 81.9809 9.37667 82.9196 9.89C83.8729 10.4033 84.6136 11.1073 85.1416 12.002C85.6842 12.8967 85.9556 13.938 85.9556 15.126C85.9556 16.2847 85.6842 17.3187 85.1416 18.228C84.6136 19.1373 83.8729 19.856 82.9196 20.384C81.9809 20.8973 80.9029 21.154 79.6856 21.154ZM79.6856 18.8C80.3602 18.8 80.9616 18.6533 81.4896 18.36C82.0176 18.0667 82.4282 17.6413 82.7216 17.084C83.0296 16.5267 83.1836 15.874 83.1836 15.126C83.1836 14.3633 83.0296 13.7107 82.7216 13.168C82.4282 12.6107 82.0176 12.1853 81.4896 11.892C80.9616 11.5987 80.3676 11.452 79.7076 11.452C79.0329 11.452 78.4316 11.5987 77.9036 11.892C77.3902 12.1853 76.9796 12.6107 76.6716 13.168C76.3636 13.7107 76.2096 14.3633 76.2096 15.126C76.2096 15.874 76.3636 16.5267 76.6716 17.084C76.9796 17.6413 77.3902 18.0667 77.9036 18.36C78.4316 18.6533 79.0256 18.8 79.6856 18.8ZM95.0973 21.154C94.0999 21.154 93.2126 20.934 92.4352 20.494C91.6579 20.054 91.0419 19.394 90.5873 18.514C90.1473 17.6193 89.9273 16.49 89.9273 15.126C89.9273 13.7473 90.1546 12.618 90.6093 11.738C91.0786 10.858 91.7019 10.2053 92.4793 9.78C93.2713 9.34 94.1439 9.12 95.0973 9.12C96.2559 9.12 97.2753 9.36933 98.1553 9.868C99.0499 10.3667 99.7539 11.0633 100.267 11.958C100.795 12.8527 101.059 13.9087 101.059 15.126C101.059 16.3433 100.795 17.3993 100.267 18.294C99.7539 19.1887 99.0499 19.8927 98.1553 20.406C97.2753 20.9047 96.2559 21.154 95.0973 21.154ZM88.5853 21V4.676H91.3353V11.98L91.1153 15.104L91.2033 18.228V21H88.5853ZM94.7893 18.8C95.4493 18.8 96.0359 18.6533 96.5493 18.36C97.0773 18.0667 97.4953 17.6413 97.8033 17.084C98.1113 16.5267 98.2653 15.874 98.2653 15.126C98.2653 14.3633 98.1113 13.7107 97.8033 13.168C97.4953 12.6107 97.0773 12.1853 96.5493 11.892C96.0359 11.5987 95.4493 11.452 94.7893 11.452C94.1293 11.452 93.5353 11.5987 93.0073 11.892C92.4793 12.1853 92.0613 12.6107 91.7533 13.168C91.4453 13.7107 91.2913 14.3633 91.2913 15.126C91.2913 15.874 91.4453 16.5267 91.7533 17.084C92.0613 17.6413 92.4793 18.0667 93.0073 18.36C93.5353 18.6533 94.1293 18.8 94.7893 18.8ZM110.011 21V5.6H116.347C117.711 5.6 118.877 5.82 119.845 6.26C120.828 6.7 121.583 7.33067 122.111 8.152C122.639 8.97333 122.903 9.94867 122.903 11.078C122.903 12.2073 122.639 13.1827 122.111 14.004C121.583 14.8253 120.828 15.456 119.845 15.896C118.877 16.336 117.711 16.556 116.347 16.556H111.595L112.871 15.214V21H110.011ZM112.871 15.522L111.595 14.136H116.215C117.477 14.136 118.423 13.872 119.053 13.344C119.699 12.8013 120.021 12.046 120.021 11.078C120.021 10.0953 119.699 9.34 119.053 8.812C118.423 8.284 117.477 8.02 116.215 8.02H111.595L112.871 6.612V15.522ZM130.732 21.154C129.53 21.154 128.459 20.8973 127.52 20.384C126.582 19.856 125.841 19.1373 125.298 18.228C124.756 17.3187 124.484 16.2847 124.484 15.126C124.484 13.9527 124.756 12.9187 125.298 12.024C125.841 11.1147 126.582 10.4033 127.52 9.89C128.459 9.37667 129.53 9.12 130.732 9.12C131.95 9.12 133.028 9.37667 133.966 9.89C134.92 10.4033 135.66 11.1073 136.188 12.002C136.731 12.8967 137.002 13.938 137.002 15.126C137.002 16.2847 136.731 17.3187 136.188 18.228C135.66 19.1373 134.92 19.856 133.966 20.384C133.028 20.8973 131.95 21.154 130.732 21.154ZM130.732 18.8C131.407 18.8 132.008 18.6533 132.536 18.36C133.064 18.0667 133.475 17.6413 133.768 17.084C134.076 16.5267 134.23 15.874 134.23 15.126C134.23 14.3633 134.076 13.7107 133.768 13.168C133.475 12.6107 133.064 12.1853 132.536 11.892C132.008 11.5987 131.414 11.452 130.754 11.452C130.08 11.452 129.478 11.5987 128.95 11.892C128.437 12.1853 128.026 12.6107 127.718 13.168C127.41 13.7107 127.256 14.3633 127.256 15.126C127.256 15.874 127.41 16.5267 127.718 17.084C128.026 17.6413 128.437 18.0667 128.95 18.36C129.478 18.6533 130.072 18.8 130.732 18.8ZM139.632 21V9.252H142.25V12.486L141.942 11.54C142.294 10.748 142.844 10.1467 143.592 9.736C144.355 9.32533 145.301 9.12 146.43 9.12V11.738C146.313 11.7087 146.203 11.694 146.1 11.694C145.997 11.6793 145.895 11.672 145.792 11.672C144.751 11.672 143.922 11.98 143.306 12.596C142.69 13.1973 142.382 14.0993 142.382 15.302V21H139.632ZM153.615 21.154C152.324 21.154 151.327 20.824 150.623 20.164C149.919 19.4893 149.567 18.4993 149.567 17.194V6.656H152.317V17.128C152.317 17.6853 152.456 18.118 152.735 18.426C153.028 18.734 153.431 18.888 153.945 18.888C154.561 18.888 155.074 18.7267 155.485 18.404L156.255 20.362C155.932 20.626 155.536 20.824 155.067 20.956C154.597 21.088 154.113 21.154 153.615 21.154ZM147.631 11.54V9.34H155.463V11.54H147.631ZM165.755 21V18.624L165.601 18.118V13.96C165.601 13.1533 165.359 12.53 164.875 12.09C164.391 11.6353 163.658 11.408 162.675 11.408C162.015 11.408 161.362 11.5107 160.717 11.716C160.086 11.9213 159.551 12.2073 159.111 12.574L158.033 10.572C158.664 10.088 159.412 9.72867 160.277 9.494C161.157 9.24467 162.066 9.12 163.005 9.12C164.706 9.12 166.019 9.53067 166.943 10.352C167.882 11.1587 168.351 12.4127 168.351 14.114V21H165.755ZM162.059 21.154C161.179 21.154 160.409 21.0073 159.749 20.714C159.089 20.406 158.576 19.988 158.209 19.46C157.857 18.9173 157.681 18.3087 157.681 17.634C157.681 16.974 157.835 16.38 158.143 15.852C158.466 15.324 158.986 14.906 159.705 14.598C160.424 14.29 161.377 14.136 162.565 14.136H165.975V15.962H162.763C161.824 15.962 161.194 16.116 160.871 16.424C160.548 16.7173 160.387 17.084 160.387 17.524C160.387 18.0227 160.585 18.4187 160.981 18.712C161.377 19.0053 161.927 19.152 162.631 19.152C163.306 19.152 163.907 18.998 164.435 18.69C164.978 18.382 165.366 17.9273 165.601 17.326L166.063 18.976C165.799 19.6653 165.322 20.2007 164.633 20.582C163.958 20.9633 163.1 21.154 162.059 21.154ZM171.88 21V4.676H174.63V21H171.88Z" fill="#0A73BE"/>
<path d="M64.0894 33.0923C63.6646 33.0923 63.2808 33.0132 62.938 32.855C62.5952 32.6938 62.3008 32.4683 62.0547 32.1782C61.8115 31.8882 61.624 31.5454 61.4922 31.1499C61.3604 30.7544 61.2944 30.3208 61.2944 29.8491V29.7524C61.2944 29.2837 61.3604 28.8516 61.4922 28.4561C61.624 28.0605 61.8115 27.7178 62.0547 27.4277C62.3008 27.1348 62.5952 26.9092 62.938 26.751C63.2808 26.5898 63.6631 26.5093 64.085 26.5093C64.5215 26.5093 64.9126 26.5898 65.2583 26.751C65.604 26.9092 65.8984 27.1348 66.1416 27.4277C66.3848 27.7178 66.5708 28.0605 66.6997 28.4561C66.8286 28.8516 66.8931 29.2837 66.8931 29.7524V29.8491C66.8931 30.3208 66.8286 30.7544 66.6997 31.1499C66.5708 31.5454 66.3848 31.8882 66.1416 32.1782C65.8984 32.4683 65.604 32.6938 65.2583 32.855C64.9126 33.0132 64.5229 33.0923 64.0894 33.0923ZM64.0894 32.2134C64.4761 32.2134 64.7939 32.1152 65.043 31.9189C65.2949 31.7197 65.481 31.4429 65.6011 31.0884C65.7241 30.7339 65.7856 30.3208 65.7856 29.8491V29.7437C65.7856 29.2778 65.7241 28.8691 65.6011 28.5176C65.478 28.166 65.2905 27.8906 65.0386 27.6914C64.7896 27.4922 64.4717 27.3926 64.085 27.3926C63.7158 27.3926 63.4067 27.4922 63.1577 27.6914C62.9087 27.8906 62.7212 28.166 62.5952 28.5176C62.4692 28.8691 62.4062 29.2778 62.4062 29.7437V29.8491C62.4062 30.3179 62.4692 30.731 62.5952 31.0884C62.7212 31.4429 62.9087 31.7197 63.1577 31.9189C63.4097 32.1152 63.7202 32.2134 64.0894 32.2134ZM67.4468 33V32.3232L68.106 32.1914V29.0581L67.4116 28.9263V28.2451H69.1255L69.1826 28.9351C69.3408 28.689 69.5371 28.4985 69.7715 28.3638C70.0088 28.2261 70.2769 28.1572 70.5757 28.1572C71.0649 28.1572 71.4458 28.3081 71.7183 28.6099C71.9907 28.9087 72.127 29.3774 72.127 30.0161V32.1914L72.7861 32.3232V33H70.3999V32.3232L71.0195 32.1914V30.0249C71.0195 29.6646 70.9478 29.4097 70.8042 29.2603C70.6606 29.1079 70.4468 29.0317 70.1626 29.0317C69.9487 29.0317 69.7612 29.0801 69.6001 29.1768C69.4419 29.2705 69.313 29.4023 69.2134 29.5723V32.1914L69.8154 32.3232V33H67.4468ZM73.2256 33V32.3232L73.8892 32.1914V26.9575L73.186 26.8257V26.1445H74.9922V32.1914L75.6558 32.3232V33H73.2256ZM77.3564 34.9204C77.2656 34.9204 77.1602 34.9116 77.04 34.894C76.9229 34.8765 76.8203 34.8545 76.7324 34.8281L76.8555 33.9976C76.9082 34.0063 76.9712 34.0137 77.0444 34.0195C77.1206 34.0254 77.1807 34.0283 77.2246 34.0283C77.4092 34.0283 77.5645 33.9697 77.6904 33.8525C77.8164 33.7383 77.9189 33.5786 77.998 33.3735L78.1431 32.9912L76.5171 29.0054L75.9634 28.9263V28.2451H78.2661V28.9263L77.6816 29.0142L78.5078 31.229L78.6528 31.6421H78.6792L79.6548 29.0098L79.0703 28.9263V28.2451H81.2544V28.9263L80.7402 29.001L78.8989 33.7163C78.811 33.939 78.7012 34.1411 78.5693 34.3228C78.4404 34.5073 78.2764 34.6523 78.0771 34.7578C77.8809 34.8662 77.6406 34.9204 77.3564 34.9204ZM83.8911 33V32.3232L84.5547 32.1914V29.0361H83.8296V28.2451H84.5547V27.687C84.5547 27.1655 84.6982 26.7627 84.9854 26.4785C85.2754 26.1943 85.6797 26.0522 86.1982 26.0522C86.3184 26.0522 86.4473 26.0625 86.585 26.083C86.7227 26.1006 86.8486 26.124 86.9629 26.1533L86.853 26.9839C86.7915 26.9692 86.7153 26.9575 86.6245 26.9487C86.5337 26.937 86.4443 26.9312 86.3564 26.9312C86.1221 26.9312 85.9463 26.9956 85.8291 27.1245C85.7148 27.2534 85.6577 27.4409 85.6577 27.687V28.2451H86.7212V29.0361H85.6577V32.1914L86.4883 32.3232V33H83.8911ZM89.4326 33.0923C88.9756 33.0923 88.583 32.9897 88.2549 32.7847C87.9268 32.5796 87.6748 32.2954 87.499 31.9321C87.3232 31.5659 87.2354 31.1455 87.2354 30.6709V30.5786C87.2354 30.1069 87.3232 29.6895 87.499 29.3262C87.6748 28.9629 87.9268 28.6772 88.2549 28.4692C88.583 28.2612 88.9727 28.1572 89.4238 28.1572C89.8809 28.1572 90.2734 28.2612 90.6016 28.4692C90.9297 28.6743 91.1816 28.9585 91.3574 29.3218C91.5332 29.6851 91.6211 30.104 91.6211 30.5786V30.6709C91.6211 31.1455 91.5332 31.5659 91.3574 31.9321C91.1816 32.2954 90.9297 32.5796 90.6016 32.7847C90.2764 32.9897 89.8867 33.0923 89.4326 33.0923ZM89.4326 32.2397C89.6787 32.2397 89.8809 32.1738 90.0391 32.042C90.2002 31.9072 90.3203 31.7227 90.3994 31.4883C90.4785 31.251 90.5181 30.9785 90.5181 30.6709V30.5786C90.5181 30.2739 90.4785 30.0044 90.3994 29.77C90.3203 29.5356 90.2002 29.3511 90.0391 29.2163C89.8779 29.0815 89.6729 29.0142 89.4238 29.0142C89.1807 29.0142 88.9785 29.0815 88.8174 29.2163C88.6562 29.3511 88.5361 29.5356 88.457 29.77C88.3809 30.0044 88.3428 30.2739 88.3428 30.5786V30.6709C88.3428 30.9785 88.3809 31.251 88.457 31.4883C88.5361 31.7227 88.6562 31.9072 88.8174 32.042C88.9814 32.1738 89.1865 32.2397 89.4326 32.2397ZM92.2847 33V32.3232L92.9438 32.1914V29.0581L92.2495 28.9263V28.2451H93.9634L94.0205 28.8428L94.0293 28.9395C94.1553 28.6875 94.3091 28.4941 94.4907 28.3594C94.6753 28.2246 94.8906 28.1572 95.1367 28.1572C95.2188 28.1572 95.3052 28.1646 95.396 28.1792C95.4897 28.1938 95.5659 28.21 95.6245 28.2275L95.4971 29.2515L94.8774 29.2163C94.6753 29.2046 94.5083 29.2441 94.3765 29.335C94.2476 29.4258 94.1392 29.5518 94.0513 29.7129V32.1914L94.7104 32.3232V33H92.2847ZM101.091 33.0923C100.667 33.0923 100.283 33.0132 99.9399 32.855C99.5972 32.6938 99.3027 32.4683 99.0566 32.1782C98.8135 31.8882 98.626 31.5454 98.4941 31.1499C98.3623 30.7544 98.2964 30.3208 98.2964 29.8491V29.7524C98.2964 29.2837 98.3623 28.8516 98.4941 28.4561C98.626 28.0605 98.8135 27.7178 99.0566 27.4277C99.3027 27.1348 99.5972 26.9092 99.9399 26.751C100.283 26.5898 100.665 26.5093 101.087 26.5093C101.523 26.5093 101.915 26.5898 102.26 26.751C102.606 26.9092 102.9 27.1348 103.144 27.4277C103.387 27.7178 103.573 28.0605 103.702 28.4561C103.831 28.8516 103.895 29.2837 103.895 29.7524V29.8491C103.895 30.3208 103.831 30.7544 103.702 31.1499C103.573 31.5454 103.387 31.8882 103.144 32.1782C102.9 32.4683 102.606 32.6938 102.26 32.855C101.915 33.0132 101.525 33.0923 101.091 33.0923ZM101.091 32.2134C101.478 32.2134 101.796 32.1152 102.045 31.9189C102.297 31.7197 102.483 31.4429 102.603 31.0884C102.726 30.7339 102.788 30.3208 102.788 29.8491V29.7437C102.788 29.2778 102.726 28.8691 102.603 28.5176C102.48 28.166 102.292 27.8906 102.041 27.6914C101.792 27.4922 101.474 27.3926 101.087 27.3926C100.718 27.3926 100.409 27.4922 100.16 27.6914C99.9106 27.8906 99.7231 28.166 99.5972 28.5176C99.4712 28.8691 99.4082 29.2778 99.4082 29.7437V29.8491C99.4082 30.3179 99.4712 30.731 99.5972 31.0884C99.7231 31.4429 99.9106 31.7197 100.16 31.9189C100.412 32.1152 100.722 32.2134 101.091 32.2134ZM104.132 33V32.3232L104.598 32.2573L106.716 26.6016H107.793L109.885 32.2573L110.351 32.3232V33H108.316V32.3232L108.773 32.2397L108.435 31.2334H106.053L105.706 32.2397L106.167 32.3232V33H104.132ZM106.343 30.3853H108.149L107.318 28.0166L107.261 27.8452H107.235L107.173 28.0254L106.343 30.3853ZM115.101 33.0923C114.761 33.0923 114.443 33.0601 114.147 32.9956C113.854 32.9282 113.56 32.8301 113.264 32.7012L113.251 31.4443H114.046L114.213 32.1299C114.339 32.1855 114.468 32.2295 114.6 32.2617C114.735 32.291 114.884 32.3057 115.048 32.3057C115.365 32.3057 115.587 32.25 115.716 32.1387C115.848 32.0273 115.914 31.8896 115.914 31.7256C115.914 31.5674 115.845 31.4326 115.708 31.3213C115.573 31.207 115.313 31.1089 114.93 31.0269C114.361 30.9038 113.942 30.7251 113.673 30.4907C113.406 30.2534 113.273 29.9458 113.273 29.5679C113.273 29.3071 113.342 29.0713 113.479 28.8604C113.62 28.6494 113.825 28.481 114.095 28.355C114.367 28.2261 114.701 28.1616 115.097 28.1616C115.457 28.1616 115.776 28.1997 116.055 28.2759C116.336 28.3491 116.575 28.4473 116.771 28.5703L116.797 29.7788H116.011L115.875 29.1504C115.784 29.0859 115.678 29.0361 115.558 29.001C115.438 28.9658 115.3 28.9482 115.145 28.9482C114.902 28.9482 114.71 29.0024 114.569 29.1108C114.429 29.2163 114.358 29.3496 114.358 29.5107C114.358 29.6045 114.38 29.6895 114.424 29.7656C114.471 29.8418 114.559 29.9121 114.688 29.9766C114.82 30.0381 115.012 30.0981 115.264 30.1567C115.882 30.3003 116.324 30.4878 116.591 30.7192C116.857 30.9507 116.991 31.2568 116.991 31.6377C116.991 32.0625 116.835 32.4111 116.525 32.6836C116.214 32.9561 115.74 33.0923 115.101 33.0923ZM119.425 33.0835C119.021 33.0835 118.706 32.9707 118.48 32.7451C118.255 32.5166 118.142 32.1533 118.142 31.6553V29.0361H117.448V28.2451H118.142V27.0894H119.245V28.2451H120.186V29.0361H119.245V31.6553C119.245 31.8574 119.286 32.0054 119.368 32.0991C119.453 32.1899 119.567 32.2354 119.711 32.2354C119.793 32.2354 119.884 32.228 119.983 32.2134C120.086 32.1987 120.168 32.1841 120.229 32.1694L120.344 32.9473C120.215 32.9854 120.067 33.0176 119.9 33.0439C119.736 33.0703 119.578 33.0835 119.425 33.0835ZM122.91 33.0923C122.4 33.0923 122.002 32.9312 121.715 32.6089C121.431 32.2837 121.289 31.7798 121.289 31.0972V29.0581L120.752 28.9263V28.2451H121.289H122.396V31.106C122.396 31.5161 122.46 31.8047 122.589 31.9717C122.721 32.1357 122.923 32.2178 123.196 32.2178C123.436 32.2178 123.64 32.1709 123.807 32.0771C123.977 31.9805 124.111 31.8442 124.211 31.6685V29.0581L123.613 28.9263V28.2451H124.211H125.318V32.1914L125.881 32.3232V33H124.338L124.264 32.354C124.114 32.5913 123.924 32.7744 123.692 32.9033C123.464 33.0293 123.203 33.0923 122.91 33.0923ZM128.254 33.0923C127.87 33.0923 127.542 32.9956 127.27 32.8022C126.997 32.6089 126.788 32.3394 126.641 31.9937C126.498 31.645 126.426 31.2393 126.426 30.7764V30.6841C126.426 30.1772 126.498 29.7349 126.641 29.3569C126.788 28.979 126.997 28.6846 127.27 28.4736C127.545 28.2627 127.872 28.1572 128.25 28.1572C128.522 28.1572 128.759 28.21 128.961 28.3154C129.167 28.418 129.342 28.5659 129.489 28.7593V26.9575L128.79 26.8257V26.1445H129.489H130.596V32.1914L131.255 32.3232V33H129.638L129.55 32.4243C129.401 32.644 129.218 32.811 129.001 32.9253C128.787 33.0366 128.538 33.0923 128.254 33.0923ZM128.566 32.2178C128.777 32.2178 128.958 32.1724 129.111 32.0815C129.263 31.9878 129.389 31.853 129.489 31.6772V29.5811C129.392 29.4111 129.266 29.2778 129.111 29.1812C128.958 29.0815 128.78 29.0317 128.575 29.0317C128.334 29.0317 128.137 29.1021 127.981 29.2427C127.829 29.3804 127.716 29.5737 127.643 29.8228C127.57 30.0688 127.533 30.356 127.533 30.6841V30.7764C127.533 31.2158 127.614 31.5659 127.775 31.8267C127.939 32.0874 128.203 32.2178 128.566 32.2178ZM133.954 33.0923C133.505 33.0923 133.114 32.9927 132.78 32.7935C132.449 32.5913 132.191 32.313 132.007 31.9585C131.825 31.604 131.734 31.1982 131.734 30.7412V30.5566C131.734 30.0938 131.824 29.6821 132.002 29.3218C132.184 28.9585 132.433 28.6743 132.75 28.4692C133.066 28.2612 133.426 28.1572 133.831 28.1572C134.261 28.1572 134.622 28.2437 134.912 28.4165C135.205 28.5894 135.426 28.8354 135.575 29.1548C135.725 29.4712 135.799 29.8521 135.799 30.2974V30.9302H132.881L132.873 30.9521C132.884 31.2012 132.936 31.4224 133.026 31.6157C133.12 31.8091 133.252 31.9614 133.422 32.0728C133.595 32.1841 133.804 32.2397 134.05 32.2397C134.308 32.2397 134.542 32.2046 134.753 32.1343C134.964 32.064 135.159 31.9644 135.338 31.8354L135.685 32.5298C135.498 32.688 135.259 32.8213 134.969 32.9297C134.679 33.0381 134.34 33.0923 133.954 33.0923ZM132.899 30.1523H134.74V30.0381C134.74 29.8301 134.708 29.6484 134.644 29.4932C134.582 29.335 134.484 29.2119 134.349 29.124C134.217 29.0361 134.049 28.9922 133.844 28.9922C133.665 28.9922 133.508 29.042 133.374 29.1416C133.239 29.2412 133.13 29.3774 133.048 29.5503C132.969 29.7202 132.915 29.9136 132.886 30.1304L132.899 30.1523ZM136.397 33V32.3232L137.056 32.1914V29.0581L136.362 28.9263V28.2451H138.076L138.133 28.9351C138.291 28.689 138.487 28.4985 138.722 28.3638C138.959 28.2261 139.227 28.1572 139.526 28.1572C140.015 28.1572 140.396 28.3081 140.668 28.6099C140.941 28.9087 141.077 29.3774 141.077 30.0161V32.1914L141.736 32.3232V33H139.35V32.3232L139.97 32.1914V30.0249C139.97 29.6646 139.898 29.4097 139.754 29.2603C139.611 29.1079 139.397 29.0317 139.113 29.0317C138.899 29.0317 138.711 29.0801 138.55 29.1768C138.392 29.2705 138.263 29.4023 138.164 29.5723V32.1914L138.766 32.3232V33H136.397ZM143.859 33.0835C143.455 33.0835 143.14 32.9707 142.914 32.7451C142.688 32.5166 142.576 32.1533 142.576 31.6553V29.0361H141.881V28.2451H142.576V27.0894H143.679V28.2451H144.619V29.0361H143.679V31.6553C143.679 31.8574 143.72 32.0054 143.802 32.0991C143.887 32.1899 144.001 32.2354 144.145 32.2354C144.227 32.2354 144.317 32.228 144.417 32.2134C144.52 32.1987 144.602 32.1841 144.663 32.1694L144.777 32.9473C144.648 32.9854 144.5 33.0176 144.333 33.0439C144.169 33.0703 144.011 33.0835 143.859 33.0835ZM147.287 33.0923C146.947 33.0923 146.629 33.0601 146.333 32.9956C146.04 32.9282 145.746 32.8301 145.45 32.7012L145.437 31.4443H146.232L146.399 32.1299C146.525 32.1855 146.654 32.2295 146.786 32.2617C146.92 32.291 147.07 32.3057 147.234 32.3057C147.55 32.3057 147.773 32.25 147.902 32.1387C148.034 32.0273 148.1 31.8896 148.1 31.7256C148.1 31.5674 148.031 31.4326 147.893 31.3213C147.758 31.207 147.499 31.1089 147.115 31.0269C146.547 30.9038 146.128 30.7251 145.858 30.4907C145.592 30.2534 145.458 29.9458 145.458 29.5679C145.458 29.3071 145.527 29.0713 145.665 28.8604C145.806 28.6494 146.011 28.481 146.28 28.355C146.553 28.2261 146.887 28.1616 147.282 28.1616C147.643 28.1616 147.962 28.1997 148.24 28.2759C148.521 28.3491 148.76 28.4473 148.957 28.5703L148.983 29.7788H148.196L148.06 29.1504C147.969 29.0859 147.864 29.0361 147.744 29.001C147.624 28.9658 147.486 28.9482 147.331 28.9482C147.087 28.9482 146.896 29.0024 146.755 29.1108C146.614 29.2163 146.544 29.3496 146.544 29.5107C146.544 29.6045 146.566 29.6895 146.61 29.7656C146.657 29.8418 146.745 29.9121 146.874 29.9766C147.005 30.0381 147.197 30.0981 147.449 30.1567C148.067 30.3003 148.51 30.4878 148.776 30.7192C149.043 30.9507 149.176 31.2568 149.176 31.6377C149.176 32.0625 149.021 32.4111 148.71 32.6836C148.4 32.9561 147.925 33.0923 147.287 33.0923Z" fill="#FF6868"/>
<defs>
<clipPath id="clip0_4_244">
<rect width="56" height="32" fill="white" transform="translate(0 2)"/>
</clipPath>
</defs>
</svg>
